{
	"asset":{
		"version":"2.0",
		"generator":"Created using the official Cinema 4D glTF Exporter 1.000x290161"
	},
	"scenes":[{
		"nodes":[0,
		1]
	}],
	"nodes":[{
		"name":"CINEMA_4D_Editor",
		"translation":[1167.0006103515626,
		419.6494445800781,
		188.20555114746095],
		"rotation":[-0.1233459934592247,
		0.6590991616249085,
		0.11082756519317627,
		0.7335470914840698],
		"scale":[1.0,
		1.0,
		1.0],
		"camera":0
	},
	{
		"name":"Default",
		"mesh":0,
		"translation":[-0.009517799131572247,
		-0.054766010493040088,
		-232.39186096191407],
		"rotation":[0.0,
		-0.7071067690849304,
		0.0,
		-0.7071067690849304],
		"scale":[1.0,
		1.0,
		1.0]
	}],
	"meshes":[{
		"primitives":[{
			"attributes":{
				"POSITION":1,
				"NORMAL":2,
				"TEXCOORD_0":3
			},
			"indices":0,
			"material":0
		}]
	}],
	"cameras":[{
		"type":"perspective",
		"perspective":{
			"yfov":0.5483348965644836,
			"znear":0.009999999776482582,
			"zfar":10000000000.0,
			"aspectRatio":1.7777777910232545
		}
	}],
	"accessors":[{
		"bufferView":0,
		"min":[0],
		"type":"SCALAR",
		"componentType":5123,
		"count":5424,
		"byteOffset":0,
		"max":[925]
	},
	{
		"bufferView":1,
		"min":[-166.9982147216797,
		-96.09357452392578,
		-75.56180572509766],
		"type":"VEC3",
		"componentType":5126,
		"count":926,
		"byteOffset":0,
		"max":[232.63980102539063,
		138.33193969726563,
		75.62299346923828]
	},
	{
		"bufferView":1,
		"min":[-0.9990954399108887,
		-0.999983549118042,
		-0.9999572038650513],
		"type":"VEC3",
		"componentType":5126,
		"count":926,
		"byteOffset":12,
		"max":[0.999854326248169,
		0.9999911785125732,
		0.9999510645866394]
	},
	{
		"bufferView":1,
		"min":[0.0036564948968589308,
		0.010471496731042862],
		"type":"VEC2",
		"componentType":5126,
		"count":926,
		"byteOffset":24,
		"max":[1.452880859375,
		0.9891737699508667]
	},
	{
		"bufferView":2,
		"min":[0.0],
		"type":"SCALAR",
		"componentType":5126,
		"count":91,
		"byteOffset":0,
		"max":[3.0]
	},
	{
		"bufferView":2,
		"min":[-0.009517799131572247,
		-3.3834567070007326,
		-232.39186096191407],
		"type":"VEC3",
		"componentType":5126,
		"count":91,
		"byteOffset":364,
		"max":[-0.009517799131572247,
		129.92233276367188,
		452.1214904785156]
	},
	{
		"bufferView":3,
		"min":[0.0],
		"type":"SCALAR",
		"componentType":5126,
		"count":91,
		"byteOffset":0,
		"max":[3.0]
	},
	{
		"bufferView":3,
		"min":[1.0,
		1.0,
		1.0],
		"type":"VEC3",
		"componentType":5126,
		"count":91,
		"byteOffset":364,
		"max":[1.0,
		1.0,
		1.0]
	}],
	"bufferViews":[{
		"buffer":0,
		"byteOffset":0,
		"byteLength":10848,
		"target":34963
	},
	{
		"buffer":0,
		"byteOffset":10848,
		"byteLength":29632,
		"target":34962,
		"byteStride":32
	},
	{
		"buffer":1,
		"byteOffset":0,
		"byteLength":1456
	},
	{
		"buffer":1,
		"byteOffset":1456,
		"byteLength":1456
	}],
	"buffers":[{
		"uri":"data:application/octet-stream;base64,",
		"byteLength":40480
	},
	{
		"uri":"data:application/octet-stream;base64,",
		"byteLength":2912
	}],
	"materials":[{
		"pbrMetallicRoughness":{
			"baseColorFactor":[1.0,
			1.0,
			1.0,
			1.0],
			"metallicFactor":1.0,
			"roughnessFactor":1.0
		},
		"emissiveFactor":[0.0,
		0.0,
		0.0],
		"alphaMode":"OPAQUE",
		"doubleSided":false,
		"name":""
	}],
	"animations":[{
		"samplers":[{
			"input":4,
			"interpolation":"LINEAR",
			"output":5
		},
		{
			"input":6,
			"interpolation":"LINEAR",
			"output":7
		}],
		"channels":[{
			"sampler":0,
			"target":{
				"node":1,
				"path":"translation"
			}
		},
		{
			"sampler":1,
			"target":{
				"node":1,
				"path":"scale"
			}
		}]
	}]
}