{"accessors" : [{"bufferView" : 0, "byteOffset" : 0, "componentType" : 5123, "count" : 5424, "type" : "SCALAR", "max" : [5423], "min" : [0]}, {"bufferView" : 1, "byteOffset" : 0, "componentType" : 5126, "count" : 5424, "type" : "VEC3", "max" : [232.63980102539062, 138.33193969726562, 75.62299346923828], "min" : [-166.9982147216797, -96.09357452392578, -75.56180572509766], "name" : "POSITION"}, {"bufferView" : 1, "byteOffset" : 12, "componentType" : 5126, "count" : 5424, "type" : "VEC3", "max" : [0.9998586773872375, 0.9999955296516418, 0.999955415725708], "min" : [-0.9990997910499573, -0.999987781047821, -0.9999614357948303], "name" : "NORMAL"}, {"bufferView" : 1, "byteOffset" : 24, "componentType" : 5126, "count" : 5424, "type" : "VEC2", "max" : [1.452880859375, -0.0108262300491333], "min" : [0.0036564948968589306, -0.989528477191925], "name" : "TEXCOORD_0"}], "asset" : {"generator" : "Aspose.3D 21.3.1", "version" : "2.0"}, "buffers" : [{"uri" : "buffer.bin", "byteLength" : 184424}], "bufferViews" : [{"buffer" : 0, "byteOffset" : 0, "byteLength" : 10848, "target" : 34963}, {"buffer" : 0, "byteOffset" : 10852, "byteLength" : 173568, "byteStride" : 32, "target" : 34962}], "cameras" : [{"perspective" : {"aspectRatio" : 1.7777777777777777, "yfov" : 0.9272952180016123, "zfar" : 10000, "znear" : 0.001}, "type" : "perspective"}], "meshes" : [{"primitives" : [{"attributes" : {"POSITION" : 1, "NORMAL" : 2, "TEXCOORD_0" : 3}, "indices" : 0, "mode" : 4}]}], "nodes" : [{"camera" : 0, "matrix" : [0.9396202446779895, 0.32705290406418913, 0.10074816988142009, 0, -0.32518896152630816, 0.9450060306385246, -0.03486748282083114, 0, -0.10661113962769761, -1.2143064331837647E-16, 0.9943007919675431, 0, 1167.0005862384464, 419.6494355055041, 188.20555095340353, 1], "name" : "CINEMA_4D_Editor"}, {"matrix" : [2.220446049250313E-16, 0, -1, 0, 0, 1, 0, 0, 1, 0, 2.220446049250313E-16, 0, -0.009517798729904643, -0.05476601225646749, -232.39186142762298, 1], "mesh" : 0, "name" : "Default"}], "scene" : 0, "scenes" : [{"nodes" : [0, 1]}]}